#!OML:ASF H:\GeneralSubjects\Female5\Project 1\Capture day 1\Session 1\Female5.ASF
:FULLY-SPECIFIED
:DEGREES
111
root -10.5442 15.931 3.59718 -61.561 -85.6277 70.3335
lowerback 7.89545 1.18064 -0.816614
upperback -11.0759 1.49528 2.54748
thorax -17.0534 0.877539 3.07417
lowerneck -16.2702 -0.308732 -1.61059
upperneck 24.7057 1.48745 -6.89945
head 10.7075 -0.487153 -2.03416
rclavicle 1.78906e-014 -1.74931e-014
rhumerus -9.88795 27.2444 -68.6699
rradius 47.825
rwrist -52.1055
rhand -23.6224 -27.3725
rfingers 7.12502
rthumb 2.842 -57.3333
lclavicle 1.78906e-014 -1.74931e-014
lhumerus -3.44102 -13.4192 86.554
lradius 44.5149
lwrist 18.5008
lhand -33.0192 32.7736
lfingers 7.12502
lthumb -6.23274 62.6619
rfemur 1.35872 -2.89172 15.5145
rtibia 13.5926
rfoot -40.1946 -26.3184
rtoes -11.8717
lfemur -3.86631 -12.3427 -33.7176
ltibia 20.2527
lfoot -33.6792 -8.69239
ltoes -36.3357
112
root -10.6586 15.8697 3.53166 -43.0805 -85.6516 51.5322
lowerback 8.29203 1.49382 1.0665
upperback -10.9109 2.24342 2.4667
thorax -17.0609 0.982003 1.74673
lowerneck -16.9257 -0.931106 -2.1086
upperneck 24.6791 0.800353 -6.92217
head 10.8063 -0.852198 -2.05977
rclavicle -2.3059e-014 -2.22639e-014
rhumerus -7.52132 24.4664 -68.061
rradius 46.7758
rwrist -55.5746
rhand -23.5113 -28.1777
rfingers 7.12502
rthumb 2.94932 -58.1371
lclavicle -2.3059e-014 -2.22639e-014
lhumerus -0.91819 -16.1422 86.4553
lradius 44.8362
lwrist 21.5844
lhand -33.0211 33.8346
lfingers 7.12502
lthumb -6.23457 63.7228
rfemur 6.78821 2.15143 18.3441
rtibia 6.0918
rfoot -46.7744 -22.8015
rtoes 2.07203
lfemur -9.30952 -8.20374 -31.815
ltibia 31.3101
lfoot -31.8984 -14.3869
ltoes -31.6801
113
root -10.7578 15.7841 3.4667 -25.1667 -85.456 33.4482
lowerback 8.77673 1.66581 3.04048
upperback -10.6349 2.84521 2.51339
thorax -16.9541 1.02358 0.544794
lowerneck -17.1219 -1.45632 -2.59611
upperneck 23.4269 0.18996 -6.96606
head 10.3705 -1.12713 -2.04387
rclavicle 3.97569e-016 -3.18055e-015
rhumerus -4.85879 22.0946 -67.743
rradius 45.9498
rwrist -58.1933
rhand -24.0231 -28.7293
rfingers 7.12502
rthumb 2.45505 -58.6949
lclavicle 3.97569e-016 -3.18055e-015
lhumerus 1.90058 -17.8129 85.9983
lradius 45.1784
lwrist 25.5103
lhand -32.2829 34.7148
lfingers 7.12502
lthumb -5.52188 64.6228
rfemur 7.77399 0.402091 19.4708
rtibia 5.91887
rfoot -45.661 -23.1074
rtoes -1.14345
lfemur -14.72 -4.79475 -30.3408
ltibia 41.7276
lfoot -32.3011 -10.8129
ltoes -38.2762
114
root -10.8281 15.6679 3.41854 -4.48351 -85.5005 12.8003
lowerback 9.49334 1.60496 5.21826
upperback -10.2397 3.25979 3.15302
thorax -16.8727 1.00649 -0.0555906
lowerneck -16.9563 -1.67819 -3.24387
upperneck 21.1245 0.020266 -7.23189
head 9.52046 -1.1944 -1.98758
rclavicle 2.36554e-014 -6.52014e-014
rhumerus -1.14399 21.6707 -67.0609
rradius 45.478
rwrist -60.2961
rhand -24.9648 -28.6354
rfingers 7.12502
rthumb 1.54561 -58.6095
lclavicle 2.36554e-014 -6.52014e-014
lhumerus 4.37611 -17.2133 85.8421
lradius 46.0482
lwrist 29.5042
lhand -31.4462 36.1963
lfingers 7.12502
lthumb -4.71402 66.1238
rfemur 5.5491 -4.19714 19.8911
rtibia 10.792
rfoot -43.6601 -19.9264
rtoes -5.4192
lfemur -19.9555 -2.6256 -29.0175
ltibia 49.8485
lfoot -33.465 -7.04233
ltoes -41.9431
115
root -10.8864 15.5386 3.37628 19.9207 -85.2897 -11.7299
lowerback 10.7695 1.35065 7.19225
upperback -9.71153 3.50854 4.30211
thorax -17.0547 0.974002 0.0704027
lowerneck -17.3295 -1.67467 -4.2429
upperneck 19.33 0.220018 -7.17142
head 8.97934 -1.10126 -1.74058
rclavicle -3.57812e-015 1.90833e-014
rhumerus 2.96265 22.654 -66.1479
rradius 45.6674
rwrist -61.6785
rhand -25.6174 -28.4773
rfingers 7.12502
rthumb 0.915235 -58.4551
lclavicle -3.57812e-015 1.90833e-014
lhumerus 6.05854 -15.18 86.2953
lradius 47.4866
lwrist 32.5703
lhand -31.7513 38.1342
lfingers 7.12502
lthumb -5.00862 68.055
rfemur 3.65822 -5.78747 21.7886
rtibia 14.9545
rfoot -43.7767 -17.6572
rtoes -5.52282
lfemur -25.1042 -0.791851 -27.3732
ltibia 56.4264
lfoot -35.2791 -4.69589
ltoes -43.6316
116
root -10.9391 15.4091 3.33704 40.6294 -85.0762 -32.1229
lowerback 12.1173 1.3265 8.40597
upperback -9.37378 3.96876 5.30717
thorax -17.5418 1.09984 0.415985
lowerneck -18.7893 -1.04466 -3.52649
upperneck 18.8994 1.26166 -8.47005
head 9.13572 -0.719651 -2.18377
rclavicle -5.36719e-015 -4.13472e-014
rhumerus 6.19043 23.6009 -65.5353
rradius 46.6779
rwrist -62.3282
rhand -25.4724 -28.0953
rfingers 7.12502
rthumb 1.05535 -58.0725
lclavicle -5.36719e-015 -4.13472e-014
lhumerus 6.86847 -13.6458 86.8558
lradius 49.5509
lwrist 34.6522
lhand -32.8702 40.1866
lfingers 7.12502
lthumb -6.08892 70.0791
rfemur 1.79684 -6.30783 23.6908
rtibia 18.0087
rfoot -43.7536 -16.9069
rtoes -6.39668
lfemur -30.9467 1.48012 -26.3721
ltibia 61.103
lfoot -35.3683 -3.28562
ltoes -45.5228
117
root -11.0026 15.2918 3.29578 53.6051 -85.3785 -44.1568
lowerback 13.0111 1.61937 8.25395
upperback -9.2424 4.51389 5.81659
thorax -18.0101 1.38996 0.929998
lowerneck -19.3387 -0.908615 -3.20678
upperneck 18.1733 1.4248 -8.82639
head 8.99407 -0.637586 -2.32871
rclavicle 2.36554e-014 1.03368e-013
rhumerus 8.3364 23.9955 -65.269
rradius 48.3842
rwrist -62.7299
rhand -25.9259 -27.8905
rfingers 7.12502
rthumb 0.617293 -57.8694
lclavicle 2.36554e-014 1.03368e-013
lhumerus 6.94975 -13.2716 87.0933
lradius 52.3713
lwrist 36.3422
lhand -34.0075 42.0112
lfingers 7.12502
lthumb -7.18682 71.8692
rfemur 0.674997 -4.33636 25.1536
rtibia 18.4892
rfoot -44.6122 -17.8345
rtoes -6.04495
lfemur -37.4926 3.36362 -26.7482
ltibia 64.5334
lfoot -34.8821 -2.77912
ltoes -47.0452
118
root -11.1025 15.1979 3.25101 56.9759 -86.4198 -46.4534
lowerback 13.7407 1.92492 6.99827
upperback -9.23136 4.76737 5.70011
thorax -18.5455 1.64319 1.39862
lowerneck -19.6845 -0.793931 -2.80641
upperneck 17.4499 1.41869 -8.6819
head 8.80242 -0.5645 -2.3324
rclavicle 7.15625e-015 -2.54444e-014
rhumerus 9.7327 24.0025 -65.645
rradius 50.3846
rwrist -63.3266
rhand -26.1674 -27.4279
rfingers 7.12502
rthumb 0.384044 -57.4073
lclavicle 7.15625e-015 -2.54444e-014
lhumerus 6.44284 -13.6995 86.7708
lradius 55.6724
lwrist 37.8638
lhand -34.7371 43.0612
lfingers 7.12502
lthumb -7.89104 72.8939
rfemur -0.0810126 -2.9448 24.888
rtibia 18.4639
rfoot -45.2919 -18.4494
rtoes -6.71212
lfemur -43.5505 4.22695 -28.4753
ltibia 65.7533
lfoot -33.6876 -3.52247
ltoes -44.9992
119
root -11.2425 15.137 3.21136 41.237 -87.81 -29.6663
lowerback 14.1362 2.10754 4.85728
upperback -9.13623 4.57308 5.37092
thorax -18.8017 1.81214 2.24076
lowerneck -20.2635 -0.637841 -2.50846
upperneck 16.8114 1.51175 -8.51231
head 8.68579 -0.461401 -2.30357
rclavicle 1.20265e-014 6.67916e-014
rhumerus 11.156 24.088 -65.9292
rradius 52.477
rwrist -64.0748
rhand -26.546 -27.3075
rfingers 7.12502
rthumb 0.0183681 -57.2872
lclavicle 1.20265e-014 6.67916e-014
lhumerus 6.03933 -14.4571 86.078
lradius 59.1472
lwrist 39.2925
lhand -35.1926 43.936
lfingers 7.12502
lthumb -8.33064 73.7518
rfemur -0.0767592 -1.22405 23.6496
rtibia 17.5854
rfoot -46.2613 -19.313
rtoes -6.58374
lfemur -48.5267 3.86626 -30.8604
ltibia 65.4044
lfoot -31.8366 -4.82772
ltoes -43.0931
120
root -11.4339 15.1112 3.19311 -0.355517 -88.6381 12.5452
lowerback 14.3463 2.24838 3.03332
upperback -8.78228 4.34105 5.03977
thorax -18.5736 1.93056 2.91826
lowerneck -20.988 -0.48871 -2.37945
upperneck 16.1422 1.63357 -8.28185
head 8.58405 -0.353924 -2.22443
rclavicle -1.69464e-014 1.59028e-014
rhumerus 12.6339 24.0182 -66.155
rradius 54.5929
rwrist -64.7251
rhand -27.2267 -27.2909
rfingers 7.12502
rthumb -0.639066 -57.2697
lclavicle -1.69464e-014 1.59028e-014
lhumerus 6.0134 -15.5236 85.0764
lradius 62.5713
lwrist 40.1122
lhand -35.7271 45.1059
lfingers 7.12502
lthumb -8.84644 74.9005
rfemur -0.161683 -0.998986 21.9761
rtibia 17.9686
rfoot -46.2586 -19.8325
rtoes -9.11196
lfemur -51.8591 3.1166 -32.5719
ltibia 62.7136
lfoot -28.7528 -4.97819
ltoes -42.6718
121
root -11.6473 15.092 3.19104 -33.4732 -88.3805 46.1151
lowerback 14.9025 2.25599 2.04335
upperback -8.65015 4.12839 4.69243
thorax -18.8012 1.93777 3.11329
lowerneck -21.151 -0.388787 -2.38326
upperneck 15.3992 1.63516 -7.77398
head 8.34942 -0.266836 -2.03826
rclavicle 5.889e-015 2.38542e-014
rhumerus 13.5791 23.7174 -66.7727
rradius 56.7001
rwrist -65.6412
rhand -28.1896 -26.9223
rfingers 7.12502
rthumb -1.56902 -56.8963
lclavicle 5.889e-015 2.38542e-014
lhumerus 6.02695 -16.9334 84.0906
lradius 65.3443
lwrist 39.6044
lhand -37.0299 45.157
lfingers 7.12502
lthumb -10.1035 74.8945
rfemur 0.174028 -1.33518 20.7546
rtibia 18.0937
rfoot -46.0709 -19.8082
rtoes -10.6462
lfemur -54.3908 1.58968 -33.1119
ltibia 58.5137
lfoot -24.4277 -3.80907
ltoes -45.9589
122
root -11.8837 15.0731 3.21479 -42.2927 -88.02 55.283
lowerback 15.2982 2.16852 1.63631
upperback -8.5395 3.90886 4.46306
thorax -18.9151 1.8755 3.12811
lowerneck -21.0607 -0.30939 -2.40078
upperneck 14.6827 1.61632 -7.3418
head 8.08267 -0.198029 -1.87919
rclavicle -1.56481e-014 0
rhumerus 14.5532 23.4941 -67.2549
rradius 58.7576
rwrist -66.5184
rhand -28.913 -26.5404
rfingers 7.12502
rthumb -2.26771 -56.5081
lclavicle -1.56481e-014 0
lhumerus 6.60514 -18.014 83.3193
lradius 67.3774
lwrist 37.1622
lhand -38.3773 47.2079
lfingers 7.12502
lthumb -11.4032 76.8778
rfemur 0.630879 -2.28772 19.8007
rtibia 18.4112
rfoot -45.9281 -19.3063
rtoes -11.8231
lfemur -55.9887 -0.614926 -32.5882
ltibia 52.9955
lfoot -19.0591 -2.77812
ltoes -47.4652
123
root -12.1337 15.0581 3.25814 -39.1856 -88.106 52.5611
lowerback 15.4235 2.10297 1.7912
upperback -8.40463 3.855 4.43796
thorax -18.8053 1.83024 3.02045
lowerneck -21.2839 -0.27293 -2.48858
upperneck 14.3331 1.6211 -7.00631
head 7.9967 -0.154686 -1.74824
rclavicle 1.11816e-014 8.90555e-014
rhumerus 15.6716 23.3462 -67.4717
rradius 60.6292
rwrist -66.4363
rhand -29.3123 -26.2023
rfingers 7.12502
rthumb -2.65328 -56.1655
lclavicle 1.11816e-014 8.90555e-014
lhumerus 7.74232 -18.6548 83.0111
lradius 68.9439
lwrist 34.5445
lhand -39.5646 48.2905
lfingers 7.12502
lthumb -12.548 77.8937
rfemur 1.21479 -2.75111 19.6393
rtibia 18.3594
rfoot -45.9806 -19.8791
rtoes -14.6183
lfemur -57.0367 -3.05327 -30.8013
ltibia 46.6326
lfoot -13.0829 -0.979888
ltoes -48.6348
